<svg xmlns="http://www.w3.org/2000/svg" xmlns:xlink="http://www.w3.org/1999/xlink" id="Layer_1" x="0px" y="0px" viewBox="0 0 595.28 100.1" style="enable-background:new 0 0 595.28 100.1;" xml:space="preserve"> <style type="text/css"> .st0{fill:#020202;} </style> <g> <path class="st0" d="M37.09,84.39c1.15,2,2.3,3.99,3.44,5.99c5.81-11.29,11.63-22.58,17.44-33.87c-0.97-2.21-1.95-4.43-2.92-6.64 C49.07,61.37,43.08,72.88,37.09,84.39"></path> <path class="st0" d="M5.91,90.35c2.19,0,4.38,0,6.56,0C27.62,61.23,42.77,32.12,57.92,3c-2.2,0.03-4.4,0.06-6.6,0.09 C36.19,32.18,21.05,61.27,5.91,90.35"></path> <path class="st0" d="M97.04,78.41c-1.09,0-2.19,0-3.28,0c-1.09,0-2.19,0-3.28,0C78.5,55.42,66.54,32.43,54.57,9.44 c0.09-0.17,1.58-3.04,1.67-3.21c0.09-0.17,1.59-3.06,1.68-3.23C70.96,28.14,84,53.28,97.04,78.41z"></path> <path class="st0" d="M117.17,90.35l-6.49,0.01C95.51,61.26,80.33,32.15,65.16,3.05c2.19,0,4.37,0,6.56,0 C86.87,32.15,102.02,61.25,117.17,90.35"></path> <path class="st0" d="M83.31,78.38c-2.17,0.02-4.35,0.04-6.52,0.06c-7.45-14.3-14.89-28.6-22.34-42.89 c0.04-0.08,0.82-1.57,1.63-3.14c0.04-0.09,0.82-1.58,1.65-3.16L83.31,78.38z"></path> <path class="st0" d="M25.58,78.4l6.58-0.02c8.53-16.38,17.05-32.75,25.58-49.13c-1.12-2.06-2.23-4.12-3.35-6.18 C44.78,41.51,35.18,59.95,25.58,78.4"></path> <path class="st0" d="M110.68,90.36c-1.01-1.94-2.02-3.88-3.03-5.82c-9.24-0.04-18.48-0.07-27.71-0.11l2.44,5.94H110.68z"></path> <path class="st0" d="M40.54,90.38c-1.15-2-2.3-3.99-3.44-5.99c-3.59,0.02-7.18,0.03-10.77,0.03c-3.58,0-7.17-0.01-10.75-0.03 c-0.59,0.9-1.19,1.92-1.78,3.04c-0.53,1.03-0.98,2.01-1.36,2.93C21.81,90.37,31.17,90.37,40.54,90.38z"></path> </g> <path d="M169.85,44.31H152.3l-4.31,14.61h-13.5l18.15-54.89h17.2l19.01,54.89h-14.2L169.85,44.31L169.85,44.31z M167.73,34.74 l-3.9-11.72c-1.07-3.22-2.11-6.86-3.04-9.94h-0.16c-0.87,3.09-1.69,6.75-2.66,9.95l-3.67,11.71H167.73z M214.93,3.54 c7.94,0,13.56,1.66,17.22,4.5c3.56,2.67,6.13,7.28,6.13,12.92c0,5.19-1.7,9.9-5.08,12.93c-4.47,4.1-10.98,6.01-19.1,6.01 c-1.93,0-3.63-0.15-4.87-0.36v19.39h-12.7V4.73C200.56,4.09,206.32,3.54,214.93,3.54z M209.23,29.6c1.17,0.28,2.68,0.4,4.85,0.4 c6.91,0,11.49-3.17,11.49-8.88c0-5.14-3.91-7.89-10.53-7.89c-2.9,0-4.83,0.22-5.81,0.41L209.23,29.6L209.23,29.6z M265.01,3.54 c7.94,0,13.56,1.66,17.22,4.5c3.56,2.67,6.13,7.28,6.13,12.92c0,5.19-1.7,9.9-5.08,12.93c-4.47,4.1-10.98,6.01-19.1,6.01 c-1.93,0-3.63-0.15-4.87-0.36v19.39h-12.7V4.73C250.63,4.09,256.4,3.54,265.01,3.54z M259.31,29.6c1.17,0.28,2.68,0.4,4.85,0.4 c6.91,0,11.49-3.17,11.49-8.88c0-5.14-3.91-7.89-10.53-7.89c-2.9,0-4.83,0.22-5.81,0.41L259.31,29.6L259.31,29.6z M296.68,4.03 h12.83v44.04h24.16v10.85h-36.99V4.03z M376.7,36h-22.5v12.45h25.11v10.47h-37.94V4.03h36.7V14.5H354.2v11.04h22.5V36L376.7,36z M436.9,44.31h-17.55l-4.31,14.61h-13.5l18.15-54.89h17.2l19.01,54.89h-14.2L436.9,44.31L436.9,44.31z M434.78,34.74l-3.9-11.72 c-1.07-3.22-2.11-6.86-3.04-9.94h-0.16c-0.87,3.09-1.69,6.75-2.66,9.95l-3.67,11.71H434.78z M464.52,45.48 c3.61,1.93,9.16,3.88,15.16,3.88c5.85,0,9.01-2.28,9.01-5.9c0-3.19-2.63-5.17-9.76-7.26c-9.6-2.8-16.55-7.53-16.55-16.56 c0-9.54,8.43-16.59,21.65-16.59c7.05,0,11.89,1.32,15.63,3.03l-3.05,10.21c-2.36-1.06-6.79-2.85-12.8-2.85 c-5.61,0-8.29,2.41-8.29,5.19c0,3.55,3.46,5.03,10.9,7.43c10.41,3.39,15.47,8.26,15.47,16.69c0,8.86-6.81,17.16-23.2,17.16 c-6.74,0-13.54-1.88-16.97-3.81L464.52,45.48z M523.83,4.03v54.89h-12.83V4.03H523.83z M548.89,44.31l-4.31,14.61h-13.5l18.15-54.89 h17.2l19.01,54.89h-14.2l-4.79-14.61H548.89z M564.33,34.74l-3.9-11.72c-1.07-3.22-2.11-6.86-3.04-9.94h-0.16 c-0.87,3.09-1.69,6.75-2.66,9.95l-3.67,11.71H564.33z"></path> <path d="M178.9,68.76h3.89v13.36h7.32v3.29H178.9L178.9,68.76L178.9,68.76z M206.02,82.8c1.37,0,2.48-0.16,3.62-0.55l0.53,2.62 c-1.38,0.57-2.95,0.83-4.68,0.83c-4.31,0-6.81-2.46-6.81-6.22c0-2.74,1.83-6.46,6.44-6.46c4.31,0,5.75,3.38,5.75,6.15 c0,0.58-0.08,1.17-0.15,1.42h-8.35C202.51,82.04,204.18,82.8,206.02,82.8z M207.24,77.91c0-0.69-0.39-2.35-2.33-2.35 c-1.75,0-2.45,1.42-2.58,2.35H207.24z M224.81,69.8v3.51h2.79v2.93h-2.79v4c0,1.48,0.28,2.26,1.55,2.26c0.54,0,0.95-0.06,1.19-0.12 l0.03,2.96c-0.49,0.19-1.45,0.36-2.56,0.36c-1.29,0-2.36-0.49-2.96-1.14c-0.7-0.75-1.03-1.97-1.03-3.63v-4.69h-1.65v-2.93h1.65 v-2.64L224.81,69.8z M242.1,68.46c-0.79,2.48-1.86,4.96-2.99,6.84l-2.45,0.2c0.76-2.13,1.38-4.58,1.73-6.82L242.1,68.46z M249.35,82.01c0.75,0.46,2.35,0.99,3.52,0.99c1.22,0,1.7-0.39,1.7-0.97c0-0.62-0.39-0.9-1.87-1.32c-2.66-0.73-3.75-2.14-3.73-3.66 c0-2.3,2.01-4.03,5.16-4.03c1.53,0,2.92,0.36,3.68,0.75l-0.68,2.66c-0.56-0.29-1.76-0.75-2.9-0.75c-0.94,0-1.5,0.33-1.5,0.96 c0,0.59,0.54,0.9,2.12,1.35c2.44,0.7,3.49,1.86,3.5,3.75c0,2.18-1.74,3.96-5.47,3.96c-1.75,0-3.22-0.38-4.25-0.9L249.35,82.01z M285.03,69.8v3.51h2.79v2.93h-2.79v4c0,1.48,0.28,2.26,1.55,2.26c0.54,0,0.95-0.06,1.19-0.12l0.03,2.96 c-0.49,0.19-1.45,0.36-2.56,0.36c-1.29,0-2.36-0.49-2.96-1.14c-0.7-0.75-1.03-1.97-1.03-3.63v-4.69h-1.65v-2.93h1.65v-2.64 L285.03,69.8z M304.79,85.41l-0.23-1.2h-0.09c-0.82,0.97-2.14,1.5-3.67,1.5c-2.64,0-4.1-1.85-4.1-3.71c0-3.14,2.79-4.7,7.53-4.68 V77.2c0-0.54-0.27-1.53-2.36-1.53c-1.31,0-2.76,0.47-3.58,0.97l-0.72-2.48c0.89-0.51,2.6-1.14,4.95-1.14c4.09,0,5.57,2.31,5.57,5.28 v4.12c0,1.22,0.07,2.35,0.2,2.98L304.79,85.41L304.79,85.41z M304.34,79.75c-2.25-0.02-3.77,0.49-3.77,1.85 c0,0.9,0.62,1.38,1.58,1.38c1.04,0,1.87-0.72,2.13-1.51c0.06-0.21,0.07-0.46,0.07-0.67V79.75z M318.62,82.01 c0.75,0.46,2.35,0.99,3.52,0.99c1.22,0,1.7-0.39,1.7-0.97c0-0.62-0.39-0.9-1.87-1.32c-2.66-0.73-3.75-2.14-3.73-3.66 c0-2.3,2.01-4.03,5.16-4.03c1.53,0,2.92,0.36,3.68,0.75l-0.68,2.66c-0.56-0.29-1.76-0.75-2.9-0.75c-0.94,0-1.5,0.33-1.5,0.96 c0,0.59,0.54,0.9,2.12,1.35c2.44,0.7,3.49,1.86,3.5,3.75c0,2.18-1.74,3.96-5.47,3.96c-1.75,0-3.22-0.38-4.25-0.9L318.62,82.01z M341.7,69.8v3.51h2.79v2.93h-2.79v4c0,1.48,0.28,2.26,1.55,2.26c0.54,0,0.95-0.06,1.19-0.12l0.03,2.96 c-0.49,0.19-1.45,0.36-2.56,0.36c-1.29,0-2.36-0.49-2.96-1.14c-0.7-0.75-1.03-1.97-1.03-3.63v-4.69h-1.65v-2.93h1.65v-2.64 L341.7,69.8z M360.63,82.8c1.37,0,2.48-0.16,3.62-0.55l0.53,2.62c-1.38,0.57-2.95,0.83-4.68,0.83c-4.31,0-6.81-2.46-6.81-6.22 c0-2.74,1.83-6.46,6.44-6.46c4.3,0,5.75,3.38,5.75,6.15c0,0.58-0.08,1.17-0.15,1.42h-8.35C357.12,82.04,358.79,82.8,360.63,82.8z M361.85,77.91c0-0.69-0.39-2.35-2.33-2.35c-1.75,0-2.45,1.42-2.58,2.35H361.85z M395.03,85.41l-0.23-1.2h-0.09 c-0.82,0.97-2.14,1.5-3.67,1.5c-2.64,0-4.1-1.85-4.1-3.71c0-3.14,2.79-4.7,7.53-4.68V77.2c0-0.54-0.27-1.53-2.36-1.53 c-1.31,0-2.76,0.47-3.58,0.97l-0.72-2.48c0.89-0.51,2.6-1.14,4.95-1.14c4.09,0,5.57,2.31,5.57,5.28v4.12c0,1.22,0.07,2.35,0.2,2.98 L395.03,85.41L395.03,85.41z M394.59,79.75c-2.25-0.02-3.77,0.49-3.77,1.85c0,0.9,0.62,1.38,1.58,1.38c1.04,0,1.87-0.72,2.13-1.51 c0.06-0.21,0.07-0.46,0.07-0.67V79.75z M408.86,77.26c0-1.57-0.04-2.88-0.1-3.94h3.37l0.17,1.77h0.09c0.44-0.72,1.71-2.06,3.96-2.06 c2.5,0,4.64,1.59,4.64,5.43v6.96h-3.89V79c0-1.74-0.65-2.83-2.13-2.83c-1.19,0-1.84,0.84-2.11,1.53c-0.1,0.23-0.12,0.57-0.12,0.87 v6.85h-3.89L408.86,77.26L408.86,77.26z M448.41,80.98l-1.31,4.43h-4.09l5.5-16.65h5.21l5.76,16.65h-4.31l-1.45-4.43H448.41z M453.09,78.07l-1.18-3.56c-0.32-0.98-0.64-2.08-0.92-3.01h-0.05c-0.26,0.94-0.51,2.05-0.81,3.02l-1.11,3.55L453.09,78.07 L453.09,78.07z M468.88,77.46c0-1.63-0.04-3.01-0.1-4.14h3.38l0.17,1.79h0.05c1.01-1.37,2.53-2.09,4.47-2.09 c2.61,0,5.39,2.11,5.39,6.14c0,4.44-3.08,6.55-5.95,6.55c-1.58,0-2.88-0.57-3.47-1.45h-0.05v6.09h-3.89L468.88,77.46L468.88,77.46z M472.77,79.98c0,0.24,0.01,0.47,0.04,0.71c0.24,1.09,1.24,2.07,2.55,2.07c1.77,0,2.91-1.27,2.91-3.37c0-1.8-0.95-3.34-2.84-3.34 c-1.24,0-2.34,0.92-2.6,2.19c-0.04,0.2-0.07,0.4-0.07,0.61L472.77,79.98L472.77,79.98z M492.02,77.46c0-1.63-0.04-3.01-0.1-4.14 h3.38l0.17,1.79h0.05c1.01-1.37,2.53-2.09,4.47-2.09c2.61,0,5.39,2.11,5.39,6.14c0,4.44-3.08,6.55-5.95,6.55 c-1.58,0-2.88-0.57-3.47-1.45h-0.05v6.09h-3.89L492.02,77.46L492.02,77.46z M495.91,79.98c0,0.24,0.01,0.47,0.04,0.71 c0.24,1.09,1.24,2.07,2.55,2.07c1.77,0,2.91-1.27,2.91-3.37c0-1.8-0.95-3.34-2.84-3.34c-1.24,0-2.34,0.92-2.6,2.19 c-0.04,0.2-0.07,0.4-0.07,0.61L495.91,79.98L495.91,79.98z M515.17,67.72h3.89v17.69h-3.89V67.72z M536.17,82.8 c1.37,0,2.48-0.16,3.62-0.55l0.53,2.62c-1.38,0.57-2.95,0.83-4.68,0.83c-4.31,0-6.81-2.46-6.81-6.22c0-2.74,1.83-6.46,6.44-6.46 c4.3,0,5.75,3.38,5.75,6.15c0,0.58-0.08,1.17-0.15,1.42h-8.35C532.66,82.04,534.33,82.8,536.17,82.8z M537.39,77.91 c0-0.69-0.39-2.35-2.33-2.35c-1.75,0-2.45,1.42-2.58,2.35H537.39z"></path> </svg>